<?xml version="1.0" encoding="UTF-8"?>
<!DOCTYPE svg PUBLIC "-//W3C//DTD SVG 1.1//EN" "http://www.w3.org/Graphics/SVG/1.1/DTD/svg11.dtd">
<svg xmlns="http://www.w3.org/2000/svg" version="1.1" width="128px" height="128px" style="shape-rendering:geometricPrecision; text-rendering:geometricPrecision; image-rendering:optimizeQuality; fill-rule:evenodd; clip-rule:evenodd" xmlns:xlink="http://www.w3.org/1999/xlink">
<g><path style="opacity:0.901" fill="#0a0707" d="M 9.5,-0.5 C 30.1667,-0.5 50.8333,-0.5 71.5,-0.5C 71.5,0.166667 71.5,0.833333 71.5,1.5C 51.7304,3.30442 31.7304,4.13775 11.5,4C 10.6195,4.7083 9.9528,5.54163 9.5,6.5C 8.51836,9.96192 8.18503,13.6286 8.5,17.5C 13.8333,17.5 19.1667,17.5 24.5,17.5C 25.3382,17.8417 25.6716,18.5084 25.5,19.5C 20.0247,20.4889 14.358,20.8222 8.5,20.5C 8.33335,53.5017 8.50002,86.5017 9,119.5C 9.46524,120.931 10.2986,122.097 11.5,123C 27.1667,123.333 42.8333,123.667 58.5,124C 59.056,124.383 59.3893,124.883 59.5,125.5C 59.5,126.167 59.5,126.833 59.5,127.5C 42.8333,127.5 26.1667,127.5 9.5,127.5C 7.40417,125.567 5.90417,123.233 5,120.5C 4.33333,82.5 4.33333,44.5 5,6.5C 5.90417,3.76664 7.40417,1.43331 9.5,-0.5 Z"/></g>
<g><path style="opacity:0.892" fill="#040304" d="M 74.5,-0.5 C 80.1667,-0.5 85.8333,-0.5 91.5,-0.5C 93.5958,1.43331 95.0958,3.76664 96,6.5C 96.6667,44.5 96.6667,82.5 96,120.5C 95.0958,123.233 93.5958,125.567 91.5,127.5C 81.8333,127.5 72.1667,127.5 62.5,127.5C 62.5,126.833 62.5,126.167 62.5,125.5C 71.2417,123.735 80.2417,122.902 89.5,123C 90.7014,122.097 91.5348,120.931 92,119.5C 92.5,86.5017 92.6666,53.5017 92.5,20.5C 71.4245,20.8213 50.4245,20.488 29.5,19.5C 29.3284,18.5084 29.6618,17.8417 30.5,17.5C 51.1667,17.5 71.8333,17.5 92.5,17.5C 92.815,13.6286 92.4816,9.96192 91.5,6.5C 91.0472,5.54163 90.3805,4.7083 89.5,4C 84.2065,4.03308 79.2065,3.19975 74.5,1.5C 74.5,0.833333 74.5,0.166667 74.5,-0.5 Z"/></g>
<g><path style="opacity:0.852" fill="#020101" d="M 104.5,-0.5 C 109.5,-0.5 114.5,-0.5 119.5,-0.5C 120.122,0.626561 120.955,1.62656 122,2.5C 122.667,38.8333 122.667,75.1667 122,111.5C 119.215,116.735 116.715,122.068 114.5,127.5C 112.833,127.5 111.167,127.5 109.5,127.5C 107.285,122.068 104.785,116.735 102,111.5C 101.333,75.1667 101.333,38.8333 102,2.5C 103.045,1.62656 103.878,0.626561 104.5,-0.5 Z"/></g>
<g><path style="opacity:1" fill="#fe7d91" d="M 71.5,1.5 C 72.5,1.5 73.5,1.5 74.5,1.5C 79.2065,3.19975 84.2065,4.03308 89.5,4C 90.3805,4.7083 91.0472,5.54163 91.5,6.5C 91.5,9.16667 91.5,11.8333 91.5,14.5C 64.1667,14.5 36.8333,14.5 9.5,14.5C 9.5,11.8333 9.5,9.16667 9.5,6.5C 9.9528,5.54163 10.6195,4.7083 11.5,4C 31.7304,4.13775 51.7304,3.30442 71.5,1.5 Z"/></g>
<g><path style="opacity:1" fill="#fe788d" d="M 117.5,4.5 C 117.5,7.5 117.5,10.5 117.5,13.5C 113.833,13.5 110.167,13.5 106.5,13.5C 106.5,10.5 106.5,7.5 106.5,4.5C 110.167,3.16667 113.833,3.16667 117.5,4.5 Z"/></g>
<g><path style="opacity:1" fill="#823743" d="M 106.5,4.5 C 106.5,7.5 106.5,10.5 106.5,13.5C 110.167,13.5 113.833,13.5 117.5,13.5C 117.5,10.5 117.5,7.5 117.5,4.5C 118.479,7.62482 118.813,10.9581 118.5,14.5C 114.167,14.5 109.833,14.5 105.5,14.5C 105.187,10.9581 105.521,7.62482 106.5,4.5 Z"/></g>
<g><path style="opacity:1" fill="#fd5f7a" d="M 9.5,14.5 C 36.8333,14.5 64.1667,14.5 91.5,14.5C 71.3539,16.1631 51.0205,17.1631 30.5,17.5C 29.6618,17.8417 29.3284,18.5084 29.5,19.5C 28.1667,19.5 26.8333,19.5 25.5,19.5C 25.6716,18.5084 25.3382,17.8417 24.5,17.5C 19.2514,17.1413 14.2514,16.1413 9.5,14.5 Z"/></g>
<g><path style="opacity:1" fill="#7d323e" d="M 9.5,6.5 C 9.5,9.16667 9.5,11.8333 9.5,14.5C 14.2514,16.1413 19.2514,17.1413 24.5,17.5C 19.1667,17.5 13.8333,17.5 8.5,17.5C 8.18503,13.6286 8.51836,9.96192 9.5,6.5 Z"/></g>
<g><path style="opacity:1" fill="#7a2f3b" d="M 91.5,6.5 C 92.4816,9.96192 92.815,13.6286 92.5,17.5C 71.8333,17.5 51.1667,17.5 30.5,17.5C 51.0205,17.1631 71.3539,16.1631 91.5,14.5C 91.5,11.8333 91.5,9.16667 91.5,6.5 Z"/></g>
<g><path style="opacity:1" fill="#594e57" d="M 105.5,17.5 C 109.833,17.5 114.167,17.5 118.5,17.5C 118.5,19.5 118.5,21.5 118.5,23.5C 114.167,23.5 109.833,23.5 105.5,23.5C 105.5,21.5 105.5,19.5 105.5,17.5 Z"/></g>
<g><path style="opacity:1" fill="#e7eef8" d="M 25.5,19.5 C 26.8333,19.5 28.1667,19.5 29.5,19.5C 50.4245,20.488 71.4245,20.8213 92.5,20.5C 92.6666,53.5017 92.5,86.5017 92,119.5C 91.5348,120.931 90.7014,122.097 89.5,123C 80.2417,122.902 71.2417,123.735 62.5,125.5C 61.5,125.5 60.5,125.5 59.5,125.5C 59.3893,124.883 59.056,124.383 58.5,124C 42.8333,123.667 27.1667,123.333 11.5,123C 10.2986,122.097 9.46524,120.931 9,119.5C 8.50002,86.5017 8.33335,53.5017 8.5,20.5C 14.358,20.8222 20.0247,20.4889 25.5,19.5 Z"/></g>
<g><path style="opacity:1" fill="#99874a" d="M 117.5,107.5 C 117.5,80.8333 117.5,54.1667 117.5,27.5C 113.833,27.5 110.167,27.5 106.5,27.5C 106.5,54.1667 106.5,80.8333 106.5,107.5C 105.502,80.6718 105.169,53.6718 105.5,26.5C 109.833,26.5 114.167,26.5 118.5,26.5C 118.831,53.6718 118.498,80.6718 117.5,107.5 Z"/></g>
<g><path style="opacity:1" fill="#fee17c" d="M 117.5,107.5 C 113.833,107.5 110.167,107.5 106.5,107.5C 106.5,80.8333 106.5,54.1667 106.5,27.5C 110.167,27.5 113.833,27.5 117.5,27.5C 117.5,54.1667 117.5,80.8333 117.5,107.5 Z"/></g>
<g><path style="opacity:1" fill="#0a0b0a" d="M 22.5,32.5 C 27.6716,32.1825 32.6716,32.8492 37.5,34.5C 37.1869,39.5267 36.1869,44.36 34.5,49C 21.5161,53.0133 16.6828,48.5133 20,35.5C 21.045,34.6266 21.8783,33.6266 22.5,32.5 Z"/></g>
<g><path style="opacity:1" fill="#95ca84" d="M 23.5,36.5 C 26.2469,36.1866 28.9135,36.52 31.5,37.5C 29.9516,40.951 27.9516,41.2844 25.5,38.5C 24.5,38.8333 23.8333,39.5 23.5,40.5C 25.625,44.7412 28.4583,45.4079 32,42.5C 32.6838,43.7839 32.5171,44.9505 31.5,46C 22.7603,48.1321 20.0937,44.9654 23.5,36.5 Z"/></g>
<g><path style="opacity:1" fill="#121213" d="M 44.5,39.5 C 56.8333,39.5 69.1667,39.5 81.5,39.5C 81.67,40.8221 81.3366,41.9887 80.5,43C 68.5,43.6667 56.5,43.6667 44.5,43C 43.3157,41.8545 43.3157,40.6879 44.5,39.5 Z"/></g>
<g><path style="opacity:1" fill="#121312" d="M 22.5,53.5 C 35.8672,52.0509 39.8672,57.5509 34.5,70C 21.7383,74.2416 16.905,69.7416 20,56.5C 21.045,55.6266 21.8783,54.6266 22.5,53.5 Z"/></g>
<g><path style="opacity:1" fill="#ace695" d="M 23.5,57.5 C 26.5,57.5 29.5,57.5 32.5,57.5C 32.5,60.8333 32.5,64.1667 32.5,67.5C 23.0852,69.7559 20.0852,66.4226 23.5,57.5 Z"/></g>
<g><path style="opacity:1" fill="#121213" d="M 44.5,60.5 C 56.8333,60.5 69.1667,60.5 81.5,60.5C 81.5,61.8333 81.5,63.1667 81.5,64.5C 69.1622,64.6665 56.8288,64.4999 44.5,64C 43.3157,62.8545 43.3157,61.6879 44.5,60.5 Z"/></g>
<g><path style="opacity:1" fill="#0b0d0b" d="M 21.5,75.5 C 35.5808,72.7384 39.9141,77.9051 34.5,91C 19.9976,94.6556 15.6642,89.4889 21.5,75.5 Z"/></g>
<g><path style="opacity:1" fill="#abe493" d="M 23.5,78.5 C 26.4475,78.2229 29.2809,78.5562 32,79.5C 32.498,82.4816 32.6646,85.4816 32.5,88.5C 23.0852,90.7559 20.0852,87.4226 23.5,78.5 Z"/></g>
<g><path style="opacity:1" fill="#121213" d="M 44.5,81.5 C 56.5046,81.3335 68.5046,81.5001 80.5,82C 81.3366,83.0113 81.67,84.1779 81.5,85.5C 69.1622,85.6665 56.8288,85.4999 44.5,85C 43.3157,83.8545 43.3157,82.6879 44.5,81.5 Z"/></g>
<g><path style="opacity:1" fill="#0a0d0a" d="M 21.5,96.5 C 33.3085,93.4837 38.1418,97.817 36,109.5C 35.5348,110.931 34.7014,112.097 33.5,113C 19.452,115.053 15.452,109.553 21.5,96.5 Z"/></g>
<g><path style="opacity:1" fill="#a9e292" d="M 23.5,99.5 C 26.4475,99.2229 29.2809,99.5562 32,100.5C 32.498,103.482 32.6646,106.482 32.5,109.5C 23.0852,111.756 20.0852,108.423 23.5,99.5 Z"/></g>
<g><path style="opacity:1" fill="#020202" d="M 43.5,103.5 C 56.1667,103.5 68.8333,103.5 81.5,103.5C 81.5,104.5 81.5,105.5 81.5,106.5C 68.8333,106.5 56.1667,106.5 43.5,106.5C 43.5,105.5 43.5,104.5 43.5,103.5 Z"/></g>
<g><path style="opacity:1" fill="#f2d0c5" d="M 107.5,111.5 C 110.572,111.183 113.572,111.516 116.5,112.5C 112.816,120.617 109.816,120.284 107.5,111.5 Z"/></g>
</svg>
